<?xml version="1.0" encoding="UTF-8" standalone="no"?>
<svg width="853px" height="645px" viewBox="0 0 853 645" version="1.1" xmlns="http://www.w3.org/2000/svg" xmlns:xlink="http://www.w3.org/1999/xlink">
    <!-- Generator: Sketch 3.8.3 (29802) - http://www.bohemiancoding.com/sketch -->
    <title>Group 2</title>
    <desc>Created with Sketch.</desc>
    <defs>
        <polygon id="path-1" points="51.3400078 0.361659443 0.983867964 0.361659443 0.983867964 108.530167 51.3400078 108.530167 51.3400078 0.361659443"></polygon>
        <polygon id="path-3" points="0.560824979 332.294004 328.93939 332.294004 328.93939 0.206550379 0.560824979 0.206550379"></polygon>
        <polygon id="path-5" points="281.354983 0.00023940186 281.354983 210.542963 0 210.542963 0 0.00023940186"></polygon>
        <polygon id="path-7" points="18.951 19.1598078 18.951 0.234792209 0.0263922092 0.234792209 0.0263922092 19.1598078"></polygon>
    </defs>
    <g id="ULTIMATE" stroke="none" stroke-width="1" fill="none" fill-rule="evenodd">
        <g id="Desktop-HD-Copy-20" transform="translate(-150.000000, -1.000000)">
            <g id="Group-2" transform="translate(150.000000, 0.000000)">
                <g id="Group-5" transform="translate(329.000000, 0.000000)">
                    <path d="M325.828095,122.490291 C342.613545,99.7409412 367.892356,67.3639257 346.166085,11.3273437 C345.211871,8.86490402 341.813314,8.48746749 340.325612,10.6647059 C313.030462,50.6207926 310.983811,73.5376223 319.883349,121.122539 C320.413199,123.951492 324.117298,124.809523 325.828095,122.490291" id="Fill-1" fill="#F9D9CA"></path>
                    <path d="M333.172154,153.12855 C345.929775,178.42772 363.449983,215.649516 423.775271,222.808674 C426.425733,223.123002 428.323251,220.32803 427.046518,218.010011 C403.637338,175.4859 383.977119,162.99894 337.126022,148.568971 C334.339763,147.71094 331.871172,150.549602 333.172154,153.12855" id="Fill-3" fill="#F9D9CA"></path>
                    <g id="Group-7" transform="translate(389.203233, 0.851963)">
                        <mask id="mask-2" fill="white">
                            <use xlink:href="#path-1"></use>
                        </mask>
                        <g id="Clip-6"></g>
                        <path d="M6.5246709,107.688104 C27.6980543,88.836909 59.1932044,62.2913486 49.5516339,3.10784396 C49.1272691,0.507051393 45.8766339,-0.550013622 43.9669919,1.27891517 C8.91930139,34.8295034 2.1525,56.8215529 0.9848903,105.149206 C0.915779446,108.023064 4.36647229,109.609268 6.5246709,107.688104" id="Fill-5" fill="#F9D9CA" mask="url(#mask-2)"></path>
                    </g>
                    <path d="M430.249503,113.835829 C457.688938,114.335841 490.883972,121.368783 523.492171,69.4864297 C524.648868,67.647792 523.229065,65.2593833 521.032067,65.3322006 C471.507471,66.9693771 461.663418,73.3906526 428.273176,109.275037 C426.672714,110.995953 427.876697,113.792139 430.249503,113.835829" id="Fill-8" fill="#F9D9CA"></path>
                    <path d="M399.839515,132.732171 C418.457009,154.225422 444.637898,186.146115 504.838303,178.573112 C507.482702,178.24058 508.628487,175.069385 506.81948,173.126375 C473.623233,137.475007 451.489573,130.084047 402.539688,127.353397 C399.629758,127.190772 397.941998,130.541583 399.839515,132.732171" id="Fill-10" fill="#F9D9CA"></path>
                    <path d="M395.377136,119.196884 C247.151328,148.096872 116.088048,250.897962 54.2750577,386.744773" id="Stroke-12" stroke="#FFEDE5" stroke-width="6.804" stroke-linecap="round" stroke-linejoin="round"></path>
                    <path d="M263.41287,152.241877 C270.131172,123.287277 282.389255,74.7618031 240.332269,30.787413 C238.486888,28.8577536 235.191391,29.8262241 234.683366,32.4221622 C225.261253,80.5180136 230.588851,111.859809 257.379613,153.239475 C258.96795,155.692206 262.756923,155.069617 263.41287,152.241877" id="Fill-14" fill="#F9D9CA"></path>
                    <path d="M272.406374,179.29279 C284.396501,206.632059 303.688129,253.03248 363.858222,264.027898 C366.497771,264.509707 368.56261,261.802115 367.413187,259.405211 C346.10037,215.00848 323.006432,192.77492 276.651236,174.962586 C273.903776,173.906734 271.235127,176.622821 272.406374,179.29279" id="Fill-16" fill="#F9D9CA"></path>
                    <path d="M213.674151,217.16715 C226.745803,244.023398 247.876749,289.645887 308.427558,298.292946 C311.084082,298.671596 313.038585,295.883906 311.79459,293.534333 C288.726114,249.993206 264.764047,228.67229 217.741992,212.674321 C214.954521,211.725268 212.397419,214.544513 213.674151,217.16715" id="Fill-18" fill="#F9D9CA"></path>
                    <path d="M167.106288,257.340354 C179.314659,284.586175 198.977304,330.83732 259.232269,341.361853 C261.875456,341.824243 263.91847,339.099661 262.748435,336.712466 C241.082789,292.482001 217.810618,270.428057 171.315987,252.976168 C168.561253,251.942162 165.914428,254.680094 167.106288,257.340354" id="Fill-20" fill="#F9D9CA"></path>
                    <path d="M126.983314,295.939854 C135.257217,324.571631 148.250058,373.032783 206.486259,391.678876 C209.042148,392.498071 211.448903,390.080535 210.625635,387.557414 C195.363048,340.823247 175.396074,315.818987 131.767725,292.195829 C129.182737,290.796523 126.175808,293.143668 126.983314,295.939854" id="Fill-22" fill="#F9D9CA"></path>
                    <path d="M202.94851,188.872882 C201.629342,159.160981 200.379284,109.103916 148.056305,77.6541077 C145.761097,76.2742192 142.847529,78.0715938 143.056074,80.7100087 C146.921432,129.610492 160.481709,158.475284 197.407517,191.414207 C199.596028,193.366925 203.077032,191.774653 202.94851,188.872882" id="Fill-24" fill="#F9D9CA"></path>
                    <path d="M149.604024,227.385243 C140.6281,198.956141 126.445826,150.816599 67.7743476,133.568599 C65.2002714,132.811299 62.8541397,135.285875 63.7392436,137.788364 C80.1476155,184.148736 100.722038,208.669974 144.912973,231.243349 C147.531911,232.58076 150.480641,230.160798 149.604024,227.385243" id="Fill-26" fill="#F9D9CA"></path>
                    <path d="M108.055548,274.560077 C91.7866109,249.449018 65.2165185,206.662764 4.08493649,205.316857 C1.40295035,205.257389 -0.192661663,208.259891 1.33020208,210.444411 C29.5662298,250.932064 55.9580889,269.241984 104.572119,279.509228 C107.454163,280.117253 109.643886,277.011594 108.055548,274.560077" id="Fill-28" fill="#F9D9CA"></path>
                </g>
                <g id="Group-70" transform="translate(0.000000, 313.000000)">
                    <mask id="mask-4" fill="white">
                        <use xlink:href="#path-3"></use>
                    </mask>
                    <g id="Clip-69"></g>
                    <path d="M61.509469,281.904061 C68.478971,308.060456 90.8073393,328.577874 119.322345,331.847758 C144.114395,334.689331 167.285848,323.75001 181.27169,305.146606 C189.731981,310.176578 199.091562,314.015313 209.192522,316.353621 C261.758198,328.521658 314.235551,295.765264 326.4014,243.188795 C338.568588,190.613665 305.816746,138.128213 253.25107,125.958837 C243.455226,123.691467 233.663396,122.987432 224.13386,123.678083 C224.468418,122.452043 224.800299,121.224666 225.089357,119.975873 C237.256544,67.399404 204.50604,14.9139513 151.939026,2.74457543 C99.3733498,-9.42346196 46.8959969,23.3329322 34.7301476,75.9094008 C29.3303893,99.242961 32.7937287,122.552429 42.8960273,142.333688 C22.8560324,148.860071 7.41954883,166.510484 4.86219122,188.822791 C3.01008084,204.986164 8.29475128,220.315669 18.2043448,231.68464 C8.87554312,236.796259 2.08804034,246.196339 0.784604275,257.569325 C-1.34853441,276.178084 12.0083396,292.993291 30.6150902,295.125475 C42.9575859,296.541577 54.5065111,291.134155 61.509469,281.904061" id="Fill-68" fill="#F9D9CA" mask="url(#mask-4)"></path>
                </g>
                <g id="Page-1" transform="translate(8.000000, 88.000000)">
                    <mask id="mask-6" fill="white">
                        <use xlink:href="#path-5"></use>
                    </mask>
                    <g id="Clip-2"></g>
                    <path d="M10.5125238,187.464702 C17.9450155,191.944754 26.8599547,193.549444 35.5326232,193.199853 C44.2045127,192.849484 52.699568,190.643717 60.9476785,187.943539 C68.6091978,185.436455 76.257474,182.41861 82.5635238,177.400547 C92.7201978,169.31948 98.6048055,156.860359 103.344275,145.080174 C108.565949,132.100949 109.961927,117.777864 106.851358,104.10413 C101.177082,79.1601926 84.009358,55.9930155 87.4104961,30.6387572 C88.4878608,22.6129712 91.766695,14.7608125 97.396568,8.9384583 C103.02722,3.11532546 111.116413,-0.495032472 119.200154,0.0554361624 C131.97896,0.926687085 142.277413,11.8558642 146.438861,23.9630598 C150.601087,36.0710339 149.88596,49.2371225 149.122535,62.016248 L147.01143,97.328772 C146.76838,101.396945 151.800756,103.469573 154.50001,100.415912 C172.374292,80.1957277 196.329491,65.3525395 222.469021,58.556938 C236.23327,54.9785026 251.648231,53.783355 263.992352,60.8444583 C272.742922,65.8508421 279.088701,74.8654472 280.846916,84.7894546 C282.604352,94.7126834 279.740728,105.357672 273.240706,113.061897 C263.220358,124.940185 246.415651,128.71327 230.871375,128.555215 C215.327098,128.397159 199.879419,125.051525 184.35306,125.808322 C174.769734,126.27548 164.784441,128.721835 156.715502,133.689289 C152.649872,136.19248 155.186314,142.494451 159.859568,141.515754 C167.863071,139.840211 176.058209,139.081857 184.233093,139.278063 C196.001529,139.559137 208.265413,142.062329 217.298761,149.605385 C226.332888,157.149218 231.020165,170.738086 225.615424,181.189982 C219.194861,193.60706 202.160347,196.388211 188.611883,192.921115 C175.064198,189.453241 163.020772,181.488964 149.522165,177.835783 C137.832408,174.671562 124.697596,174.63341 113.068601,178.073255 C107.201131,179.80875 101.70291,182.543185 96.3791867,185.518986 C91.3242199,188.344517 86.4647834,190.337728 81.2501204,192.72413 C69.4474077,198.126041 57.4764298,203.316953 44.9157448,206.709303 C30.293811,210.658351 14.6988994,212.087857 -0.000155801105,208.435455" id="Fill-1" fill="#FFEDE5" mask="url(#mask-6)" transform="translate(140.677512, 105.271627) scale(-1, 1) translate(-140.677512, -105.271627) "></path>
                </g>
                <g id="Page-1" transform="translate(447.794059, 493.152167) rotate(33.000000) translate(-447.794059, -493.152167) translate(338.294059, 443.652167)">
                    <path d="M193.0924,59.672 C139.3834,16.887 68.9924,-4.364 0.5804,1.554" id="Stroke-1" stroke="#F9D9CA" stroke-width="5.16" stroke-linecap="round" stroke-linejoin="round"></path>
                    <g id="Group-5" transform="translate(199.000000, 67.359000)">
                        <mask id="mask-8" fill="white">
                            <use xlink:href="#path-7"></use>
                        </mask>
                        <g id="Clip-4"></g>
                        <path d="M12.5619,0.7503 C7.6209,-0.9467 2.2389,1.6833 0.5419,6.6243 C-1.1551,11.5653 1.4749,16.9473 6.4159,18.6443 C11.3569,20.3413 16.7389,17.7113 18.4359,12.7703 C20.1329,7.8293 17.5029,2.4473 12.5619,0.7503" id="Fill-3" fill="#FFEDE5" mask="url(#mask-8)"></path>
                    </g>
                    <path d="M204.3792,5.6277 C199.4382,3.9307 194.0562,6.5607 192.3592,11.5017 C190.6622,16.4427 193.2922,21.8247 198.2332,23.5217 C203.1742,25.2187 208.5562,22.5887 210.2532,17.6477 C211.9502,12.7067 209.3202,7.3247 204.3792,5.6277" id="Fill-6" fill="#FFEDE5"></path>
                    <g id="Group-10" transform="translate(110.000000, 79.359000)" fill="#FFEDE5">
                        <path d="M12.9293,0.5905 C7.9883,-1.1065 2.6063,1.5235 0.9093,6.4645 C-0.7877,11.4055 1.8423,16.7875 6.7833,18.4845 C11.7243,20.1815 17.1063,17.5515 18.8033,12.6105 C20.5003,7.6695 17.8703,2.2875 12.9293,0.5905" id="Fill-8"></path>
                    </g>
                    <path d="M59.3842,3.0225 C76.9472,5.9715 84.8102,11.6385 97.2802,23.7235 C109.7492,35.8075 117.6282,52.5185 119.0172,69.8275" id="Stroke-11" stroke="#F9D9CA" stroke-width="5.16" stroke-linecap="round" stroke-linejoin="round"></path>
                    <path d="M185.4383,20.9928 C168.5593,23.7978 148.9303,24.6048 129.9993,22.3278" id="Stroke-13" stroke="#F9D9CA" stroke-width="5.16" stroke-linecap="round" stroke-linejoin="round"></path>
                </g>
            </g>
        </g>
    </g>
</svg>