<?xml version="1.0" encoding="UTF-8" standalone="no"?>
<svg width="211px" height="212px" viewBox="0 0 211 212" version="1.1" xmlns="http://www.w3.org/2000/svg" xmlns:xlink="http://www.w3.org/1999/xlink">
    <!-- Generator: Sketch 3.8.3 (29802) - http://www.bohemiancoding.com/sketch -->
    <title>Page 1</title>
    <desc>Created with Sketch.</desc>
    <defs>
        <polygon id="path-1" points="210.580671 105.875542 210.580671 0.419987382 0 0.419987382 0 105.875542 0 211.331097 210.580671 211.331097"></polygon>
    </defs>
    <g id="ULTIMATE" stroke="none" stroke-width="1" fill="none" fill-rule="evenodd">
        <g id="Desktop-HD-Copy-8" transform="translate(-470.000000, -266.000000)">
            <g id="Page-1" transform="translate(470.000000, 266.000000)">
                <g id="Group-3" transform="translate(0.000000, 0.248782)">
                    <mask id="mask-2" fill="white">
                        <use xlink:href="#path-1"></use>
                    </mask>
                    <g id="Clip-2"></g>
                    <path d="M0,105.875475 C0,164.117292 47.1404715,211.331097 105.290335,211.331097 C163.440867,211.331097 210.580671,164.117292 210.580671,105.875475 C210.580671,47.633658 163.440867,0.419853628 105.290335,0.419853628 C47.1404715,0.419853628 0,47.633658 0,105.875475" id="Fill-1" fill="#A8CDF8" mask="url(#mask-2)"></path>
                </g>
                <path d="M127.144794,153.364278 C131.875601,150.455798 136.112294,145.750334 139.450902,141.381262 C141.088155,139.237855 145.005009,131.838587 145.145231,128.996315 C145.38294,124.196555 141.659057,121.675293 138.243661,122.743319 C128.484911,125.795584 116.046595,128.922082 105.966003,127.219394 C95.6877655,125.483937 87.0421073,123.575937 79.5248984,116.553186 C75.8944965,113.161855 72.2433953,108.992076 67.2935756,108.614221 C68.762563,113.337073 72.1031737,116.484972 74.9944079,120.476858 C78.0645915,124.716189 76.4199934,127.601262 75.8911579,132.79359 C75.4043889,137.573956 76.8386547,142.461994 79.5255661,146.443849 C82.2124775,150.425035 86.0959459,153.523445 90.4154364,155.615356 C93.4816136,157.100694 96.7754839,158.099836 100.135459,158.656921 C109.381398,160.19041 119.157509,158.274385 127.144794,153.364278" id="Fill-4" fill="#9AC7F4"></path>
                <path d="M121.208349,70.5324669 C128.42308,68.8444921 135.000805,74.4066498 142.28164,73.1393312 C145.521425,72.5755584 148.604963,70.9624858 150.76571,68.4793438 C153.126773,65.7661451 154.292615,62.1487697 154.480912,58.5548013 C154.745998,53.5009085 153.572143,48.3139306 150.530004,44.2431293 C147.819055,40.6157224 143.895523,37.5688076 139.558004,36.1884669 C132.084865,33.8089842 123.475264,35.6822082 117.045773,39.8345994 C114.140517,41.711836 111.342096,44.1227508 107.77446,44.4457666 C104.343039,44.7574132 101.148659,43.0420189 97.8527858,42.135836 C88.697656,39.6185868 77.303656,44.9246057 75.9014408,53.3885552 C75.4280263,56.2455394 75.9515199,59.4028013 74.1773839,61.8177287 C71.5812826,65.3495016 65.7620896,65.2451735 61.7437415,67.474183 C58.3477098,69.3581073 56.4333522,72.8831924 55.846425,76.4156341 C54.8541908,82.3904227 56.4380263,88.8447192 57.6025326,94.6850852 C58.9192794,101.293199 60.4176465,107.876568 62.4802383,114.29542 C63.2527921,116.698978 64.5875674,119.481729 67.0968649,119.727167 C69.638213,119.97595 71.5766085,117.282814 71.9017889,114.74617 C73.2145294,104.501287 68.8322731,94.2978675 70.1363332,83.9941325 C70.8461212,78.387836 74.1700389,72.2037224 80.3638237,71.0995836 C86.9682573,69.9232177 93.4297984,75.6077603 99.7037098,77.0061577 C103.824887,77.9257161 108.325998,77.7999874 112.040533,75.7896656 C114.440991,74.4902461 116.414776,72.4665489 118.896029,71.3283028 C119.674593,70.970511 120.445143,70.7110284 121.208349,70.5324669" id="Fill-6" fill="#225CBD"></path>
                <path d="M123.862943,137.598299 C122.413987,137.598299 121.021788,137.362223 119.726408,136.897428 C119.0253,136.645302 118.464414,136.1357 118.146579,135.462249 C117.828743,134.788129 117.792019,134.030413 118.043082,133.328873 C118.439709,132.222728 119.494041,131.480394 120.667228,131.480394 C120.986398,131.480394 121.302231,131.535233 121.604041,131.642905 C122.293797,131.891018 123.052997,132.016078 123.860272,132.016078 C125.31724,132.016078 126.430332,131.605454 126.441016,131.601441 C126.755512,131.476381 127.102728,131.409504 127.45662,131.409504 C128.60243,131.409504 129.617367,132.096999 130.043373,133.161012 C130.614275,134.588835 129.919177,136.215952 128.494927,136.789088 C128.339348,136.851283 126.913095,137.406362 124.891234,137.558842 C124.563383,137.584255 124.219506,137.598299 123.862943,137.598299" id="Fill-8" fill="#FF9C8F"></path>
                <path d="M127.45642,130.072165 C126.946948,130.072165 126.446825,130.165793 125.970072,130.349705 C125.875923,130.382474 124.989856,130.678739 123.860072,130.678739 C123.20704,130.678739 122.600081,130.579762 122.055888,130.384481 C121.606511,130.223307 121.140442,130.142386 120.667027,130.142386 C118.931619,130.142386 117.372489,131.241175 116.78623,132.876317 C116.019685,135.019724 117.136116,137.387168 119.27416,138.156254 C120.717774,138.673881 122.260878,138.936039 123.86341,138.936039 C124.235999,138.936039 124.615932,138.921326 124.991859,138.893238 C127.16329,138.728721 128.705059,138.145553 128.991511,138.030525 C131.100176,137.183194 132.128467,134.775623 131.283132,132.663648 C130.65347,131.089364 129.151097,130.072165 127.45642,130.072165 M127.45642,132.747244 C128.031996,132.747244 128.576856,133.090992 128.803882,133.658777 C129.101685,134.403787 128.740448,135.249112 127.997274,135.547383 C127.907132,135.584165 126.625106,136.08708 124.790875,136.225515 C124.495075,136.248254 124.185252,136.26096 123.86341,136.26096 C122.738967,136.26096 121.472299,136.103131 120.17692,135.638336 C119.422394,135.366815 119.029774,134.535534 119.300201,133.780493 C119.513204,133.186626 120.072087,132.817465 120.667027,132.817465 C120.829284,132.817465 120.993543,132.844885 121.154464,132.902399 C122.09328,133.239459 123.026755,133.353818 123.860072,133.353818 C125.596815,133.353818 126.89954,132.85826 126.917568,132.850903 C127.094515,132.780683 127.276803,132.747244 127.45642,132.747244" id="Fill-10" fill="#A8CDF8"></path>
                <path d="M109.26448,111.349756 C106.293787,111.26616 103.323762,111.181895 100.353069,111.098299 C99.5097367,111.074223 98.6383601,111.044129 97.8751544,110.683662" id="Stroke-12" stroke="#4273C4" stroke-width="2" stroke-linecap="round" stroke-linejoin="round"></path>
                <path d="M133.689466,111.265893 L139.630185,111.098032 C140.473517,111.074625 141.344894,111.043861 142.108767,110.684063" id="Stroke-14" stroke="#4273C4" stroke-width="2" stroke-linecap="round" stroke-linejoin="round"></path>
                <path d="M104.792082,96.4850789 C106.360559,96.4850789 107.632569,95.2110726 107.632569,93.6401325 L107.632569,93.5190852 C107.632569,91.9481451 106.360559,90.6741388 104.792082,90.6741388 L96.6939551,90.6741388 C95.1254772,90.6741388 93.8534677,91.9481451 93.8534677,93.5190852 L93.8534677,93.6401325 C93.8534677,95.2110726 95.1254772,96.4850789 96.6939551,96.4850789 L104.792082,96.4850789 Z" id="Stroke-16" stroke="#FFFAF6" stroke-width="2" stroke-linecap="round" stroke-linejoin="round"></path>
                <path d="M143.530613,90.6742726 L137.306113,90.6742726 C135.736968,90.6742726 134.465626,92.0693262 134.465626,93.6402662 L134.465626,93.6402662 C134.465626,95.2112063 135.736968,96.4852126 137.306113,96.4852126 L143.530613,96.4852126" id="Stroke-18" stroke="#FFFAF6" stroke-width="2" stroke-linecap="round" stroke-linejoin="round"></path>
                <path d="M143.61321,86.8916442 C142.689084,100.22825 147.61353,113.626382 145.553609,126.835253 C143.461638,140.246092 133.676179,152.1736 120.946068,156.828906 C108.215957,161.483543 93.0593465,158.677385 82.8325237,149.77071 C78.0910332,145.641726 76.7949858,140.025398 74.3537959,134.226496 C70.7694668,134.358912 67.0328972,132.714408 65.1659478,129.646761 C63.2996661,126.578445 63.7330174,122.135808 66.5074003,119.857979 C69.2811155,117.580149 74.1381218,118.325827 75.7146123,121.552641" id="Stroke-20" stroke="#FFFAF6" stroke-width="2" stroke-linecap="round" stroke-linejoin="round"></path>
                <path d="M125.263088,155.27502 C124.003765,160.118919 124.252158,164.675247 125.965531,169.377367" id="Stroke-22" stroke="#FFFAF6" stroke-width="3" stroke-linecap="round" stroke-linejoin="round"></path>
                <path d="M125.782642,171.383609 C125.782642,171.383609 120.107009,179.074461 101.410807,174.727457" id="Stroke-24" stroke="#FF6A4D" stroke-width="12" stroke-linecap="round" stroke-linejoin="round"></path>
                <path d="M138.396569,66.296212 C140.693531,67.0806789 143.347057,66.1698145 145.038395,64.4270006 C146.729734,62.6841868 147.556373,60.2445148 147.784066,57.824906 C147.880886,56.7970069 147.758693,55.7671016 147.561715,54.7371962" id="Stroke-26" stroke="#033A96" stroke-width="6" stroke-linecap="round" stroke-linejoin="round"></path>
            </g>
        </g>
    </g>
</svg>