<?xml version="1.0" encoding="UTF-8" standalone="no"?>
<svg width="209px" height="210px" viewBox="0 0 209 210" version="1.1" xmlns="http://www.w3.org/2000/svg" xmlns:xlink="http://www.w3.org/1999/xlink">
    <!-- Generator: Sketch 3.8.3 (29802) - http://www.bohemiancoding.com/sketch -->
    <title>Page 1</title>
    <desc>Created with Sketch.</desc>
    <defs></defs>
    <g id="ULTIMATE" stroke="none" stroke-width="1" fill="none" fill-rule="evenodd">
        <g id="Desktop-HD-Copy-8" transform="translate(-20.000000, -265.000000)">
            <g id="Page-1" transform="translate(20.000000, 265.000000)">
                <g id="Group-3" transform="translate(0.000000, 0.249085)" fill="#A8CDF8">
                    <path d="M0,104.87665 C0,162.569016 46.6936424,209.337407 104.292323,209.337407 C161.891665,209.337407 208.068759,162.566366 208.584646,104.87665 C209.086642,48.8258612 162.007408,0.79548265 104.292323,0.415892744 C46.6943038,0.0369652997 0,47.1842839 0,104.87665" id="Fill-1"></path>
                </g>
                <path d="M121.103793,47.1755394 C129.615252,41.1531104 142.200227,42.360776 150.004657,49.2781893 C157.808426,56.1949401 160.63191,67.913205 157.694005,77.9276215 C156.732341,81.2048139 155.20254,84.5899874 156.059043,87.8969905 C157.180103,92.224183 161.784717,94.4593249 165.076467,97.4788202 C171.521075,103.389293 173.033679,113.989987 168.499173,121.472479 C166.21274,125.245192 160.982448,130.055319 161.940806,134.866107 C162.435528,137.351659 163.876702,139.545066 164.598942,141.974309 C166.288138,147.653584 163.608176,154.115886 158.848135,157.635539 C154.088094,161.155192 147.652084,161.930934 141.905246,160.52188 C137.608179,159.467905 133.182803,156.716707 132.362015,152.363016 C130.963831,144.946107 137.919034,140.712984 141.989243,135.900871 C145.526369,131.718757 147.143474,126.822511 147.757246,121.42677 C148.908069,111.310334 147.290964,97.0296719 145.939078,85.1444669 C145.132179,78.0488517 143.661904,70.290776 138.147876,65.7635205 C134.488391,62.7592618 130.326249,59.7709022 126.301676,57.2787256 C122.277765,54.7872114 118.382825,51.3682524 120.957626,47.3928265" id="Fill-4" fill="#225CBD"></path>
                <path d="M148.295818,121.426902 C148.295818,124.497407 145.810305,126.986934 142.744751,126.986934 C139.679197,126.986934 137.193685,124.497407 137.193685,121.426902 C137.193685,118.356397 139.679197,115.866871 142.744751,115.866871 C145.810305,115.866871 148.295818,118.356397 148.295818,121.426902" id="Fill-6" fill="#FFCCB8"></path>
                <path d="M88.7906737,144.529088 C96.7273826,150.491233 110.044519,153.776375 121.694946,150.160003 C133.996183,146.34158 145.286152,134.901549 147.273636,122.157132 C149.231357,109.60483 144.552006,96.8723375 145.430335,84.198142 C146.282209,71.9041987 136.71649,61.5877003 125.351123,56.8683312" id="Stroke-8" stroke="#FFF4E6" stroke-width="2" stroke-linecap="round" stroke-linejoin="round"></path>
                <path d="M110.493538,36.7914038 C104.23875,35.1299527 97.4720443,34.8099842 92.8403133,35.4035489 C81.6687342,36.8364511 71.0950538,43.6385962 65.9977025,53.6973975 C64.2562563,57.1335804 63.0783165,60.9851262 60.3619778,63.7138013 C57.7865158,66.3020347 54.1753133,67.5209621 51.1176962,69.5136435 C46.2815949,72.6662934 43.9197627,79.5923186 44.8351297,85.1973975 C46.2789494,94.0419085 54.3776994,102.408785 51.2327785,111.889921 C50.0647595,115.410899 47.0144177,117.895126 44.3609114,120.484022 C40.9104272,123.849984 37.8415665,127.883044 36.8792405,132.610363 C35.9175759,137.337019 37.5432785,142.833454 41.6895475,145.287871 C45.3781329,147.471341 50.1540475,146.900962 53.9788797,148.835347 C59.4538861,151.604432 61.4288038,158.568218 66.2814399,162.325694 C69.4303291,164.763549 73.6639019,165.637334 77.5813291,164.929826 C81.4980949,164.222981 85.0755665,162.0097 87.6946804,159.008091 C90.1067785,156.244306 91.7715032,152.674306 91.6299652,149.005599 C91.4421297,144.130552 88.2304082,139.977587 85.2620791,136.109479 C82.8506424,132.966767 80.2368196,129.406041 79.7116741,125.361057 C79.3326962,122.440268 80.304943,117.388344 77.8273671,115.147902 C76.3226994,113.787208 72.5183703,114.453644 70.5580032,113.088975 C67.8826709,111.226136 66.9587057,108.164905 67.0460095,105.004968 C67.2669146,97.0527918 74.9827184,98.267082 74.9827184,98.267082 C74.9827184,98.267082 73.6599335,106.822098 78.9510728,107.071845 C84.242212,107.320931 82.4789399,100.506861 87.7700791,93.3145268 C93.0598956,86.1235174 101.439076,79.0583754 108.931991,76.62847 C119.655146,73.1505521 128.621642,61.450836 126.271715,49.5583438 C124.937687,42.8105205 118.094259,38.8105836 110.493538,36.7914038" id="Fill-10" fill="#225CBD"></path>
                <path d="M132.068423,129.398025 C132.068423,129.398025 128.848103,130.416227 125.627122,128.978688" id="Stroke-12" stroke="#FF6A4D" stroke-width="6.252" stroke-linecap="round" stroke-linejoin="round"></path>
                <path d="M114.773342,107.440968 C111.950519,107.361473 109.127697,107.281315 106.305535,107.20182 C105.503928,107.179297 104.675864,107.150811 103.950317,106.808319 C103.178472,106.443965 102.599092,105.752356 102.210855,104.991852 C101.822617,104.230685 101.606342,103.395984 101.392712,102.569233" id="Stroke-14" stroke="#033A96" stroke-width="2" stroke-linecap="round" stroke-linejoin="round"></path>
                <path d="M106.495024,107.07158 C105.246977,105.802968 104.395103,104.148142 104.086233,102.393946" id="Stroke-16" stroke="#033A96" stroke-width="2" stroke-linecap="round" stroke-linejoin="round"></path>
                <path d="M137.983916,107.361274 C140.806739,107.281779 140.806739,107.281779 143.629562,107.201621 C144.43117,107.179098 145.259233,107.150612 145.984119,106.80812 C146.755964,106.443767 147.335344,105.752158 147.723581,104.991653 C148.111818,104.231148 148.328094,103.395785 148.541723,102.569035" id="Stroke-18" stroke="#033A96" stroke-width="2" stroke-linecap="round" stroke-linejoin="round"></path>
                <path d="M143.439544,107.07158 C144.687591,105.802968 145.539465,104.148142 145.848335,102.393946" id="Stroke-20" stroke="#033A96" stroke-width="2" stroke-linecap="round" stroke-linejoin="round"></path>
                <path d="M104.126512,93.3146593 L112.03941,93.3146593 C113.470002,93.3146593 114.630084,92.1527035 114.630084,90.7198013 L114.630084,90.3872461 C114.630084,88.9543438 113.470002,87.792388 112.03941,87.792388 L104.126512,87.792388 C102.69592,87.792388 101.535838,88.9543438 101.535838,90.3872461 L101.535838,90.7198013 C101.535838,92.1527035 102.69592,93.3146593 104.126512,93.3146593 L104.126512,93.3146593 Z" id="Stroke-22" stroke="#FFF4E6" stroke-width="2" stroke-linecap="round" stroke-linejoin="round"></path>
                <path d="M145.351629,87.7925205 L139.436136,87.7925205 C137.945357,87.7925205 136.736993,89.1181041 136.736993,90.6112902 C136.736993,92.1044763 137.945357,93.3147918 139.436136,93.3147918 L145.351629,93.3147918" id="Stroke-24" stroke="#FFF4E6" stroke-width="2" stroke-linecap="round" stroke-linejoin="round"></path>
                <path d="M113.810289,121.426902 C113.810289,124.497407 111.324776,126.986934 108.259222,126.986934 C105.193668,126.986934 102.708156,124.497407 102.708156,121.426902 C102.708156,118.356397 105.193668,115.866871 108.259222,115.866871 C111.324776,115.866871 113.810289,118.356397 113.810289,121.426902" id="Fill-26" fill="#FFCCB8"></path>
                <path d="M106.132912,109.651003 C106.132912,110.15911 105.721526,110.571161 105.214238,110.571161 C104.706288,110.571161 104.294902,110.15911 104.294902,109.651003 C104.294902,109.142896 104.706288,108.730845 105.214238,108.730845 C105.721526,108.730845 106.132912,109.142896 106.132912,109.651003" id="Fill-28" fill="#033A96"></path>
                <path d="M124.07576,149.175587 C122.828374,153.973789 123.074412,158.487132 124.771545,163.144893" id="Stroke-30" stroke="#FFF4E6" stroke-width="2" stroke-linecap="round" stroke-linejoin="round"></path>
                <path d="M87.1432775,100.441278 L87.1432775,100.441278 C86.4911446,101.081215 85.4441604,101.070615 84.8052554,100.417429 L77.9095782,93.3688486 C77.2706731,92.7156625 77.2812554,91.6669874 77.9333883,91.0270505 L77.9333883,91.0270505 C78.5855212,90.3864511 79.6325054,90.3970505 80.2714104,91.0508991 L87.1670877,98.0994795 C87.8059927,98.7526656 87.7954104,99.8013407 87.1432775,100.441278" id="Fill-32" fill="#FFF4E6"></path>
                <path d="M74.7592339,54.2927508 C74.7592339,54.2927508 81.3890313,40.2565363 100.521129,41.109123" id="Stroke-34" stroke="#033A96" stroke-width="6" stroke-linecap="round" stroke-linejoin="round"></path>
                <path d="M69.7282864,59.9750726 C69.6634699,61.1078801 70.5272484,62.0790473 71.6588908,62.1446309 C72.7898718,62.2095521 73.7594731,61.3437161 73.8242896,60.2109085 C73.8897674,59.0781009 73.0253275,58.1069338 71.8943465,58.0413502 C70.7627041,57.976429 69.7931028,58.842265 69.7282864,59.9750726" id="Fill-36" fill="#033A96"></path>
                <path d="M115.289625,167.598218 C114.961574,167.696924 114.845831,168.104338 115.076657,168.357397 C116.905407,170.356703 127.453293,174.418249 129.356119,173.706104 C130.74372,173.186735 128.307812,161.16705 126.479062,162.635726 C123.400941,165.108691 121.211071,165.814874 115.289625,167.598218" id="Fill-38" fill="#FF6A4D"></path>
                <path d="M114.013865,167.894139 C114.356466,167.902088 114.57671,168.263792 114.420622,168.569186 C113.189109,170.983855 102.309204,178.123855 100.286004,177.944991 C98.810438,177.814486 99.7562291,165.166789 101.909061,166.094896 C105.533492,167.65764 107.83183,167.75436 114.013865,167.894139" id="Fill-40" fill="#FF6A4D"></path>
            </g>
        </g>
    </g>
</svg>