<?xml version="1.0" encoding="UTF-8" standalone="no"?>
<svg width="212px" height="212px" viewBox="0 0 212 212" version="1.1" xmlns="http://www.w3.org/2000/svg" xmlns:xlink="http://www.w3.org/1999/xlink">
    <!-- Generator: Sketch 3.8.3 (29802) - http://www.bohemiancoding.com/sketch -->
    <title>Page 1</title>
    <desc>Created with Sketch.</desc>
    <defs>
        <polygon id="path-1" points="210.580671 105.875542 210.580671 0.419987382 0 0.419987382 0 105.875542 0 211.331097 210.580671 211.331097"></polygon>
    </defs>
    <g id="ULTIMATE" stroke="none" stroke-width="1" fill="none" fill-rule="evenodd">
        <g id="Desktop-HD-Copy-8" transform="translate(-244.000000, -265.000000)">
            <g id="Page-1" transform="translate(244.500000, 265.000000)">
                <g id="Group-3" transform="translate(0.000000, 0.248782)">
                    <mask id="mask-2" fill="white">
                        <use xlink:href="#path-1"></use>
                    </mask>
                    <g id="Clip-2"></g>
                    <path d="M0,105.875475 C0,164.117292 47.1404715,211.331097 105.290335,211.331097 C163.440867,211.331097 210.580671,164.117292 210.580671,105.875475 C210.580671,47.633658 163.440867,0.419853628 105.290335,0.419853628 C47.1404715,0.419853628 0,47.633658 0,105.875475" id="Fill-1" fill="#FFE0D1" mask="url(#mask-2)"></path>
                </g>
                <path d="M124.595366,148.587322 C123.336044,153.431221 123.584436,157.98755 125.297809,162.689669" id="Stroke-4" stroke="#FFF4E6" stroke-width="3" stroke-linecap="round" stroke-linejoin="round"></path>
                <path d="M150.392654,46.0514826 C145.719939,41.0885426 138.063844,40.8203659 131.253084,40.8939306 C120.830619,41.0056151 110.407486,41.1172997 99.9843532,41.2283155 C90.9300494,41.3259558 81.6480525,41.3065615 73.3442677,45.5017539 C57.5152614,53.5002397 56.4522487,71.0908896 58.7645684,86.4632303 C59.7661506,93.126183 60.9506886,99.7730852 62.7061285,106.28289 C63.3631665,108.720555 64.5650652,111.563495 67.0596728,111.927975 C69.586331,112.297804 71.6502582,109.700303 72.0949608,107.181716 C73.8931348,97.0103975 69.9996506,86.6103596 71.7918152,76.3801893 C72.7666886,70.8140189 76.3803975,64.7944227 82.6195873,63.9872177 C89.2720968,63.126511 95.4572013,69.112 101.656996,70.808 C105.729429,71.9221703 110.231875,72.0111167 114.03722,70.1800252 C120.56353,67.0388139 123.449423,63.7130221 131.179635,65.7159874 C134.180375,66.4930978 137.11835,67.5724921 140.190537,67.9797729 C151.935758,69.5373375 158.29447,54.4445426 150.392654,46.0514826" id="Fill-6" fill="#FF6A4D"></path>
                <path d="M126.796778,127.766983 C126.796778,127.766983 123.407423,128.839021 120.018736,127.325595" id="Stroke-8" stroke="#FF9C8F" stroke-width="4.344" stroke-linecap="round" stroke-linejoin="round"></path>
                <path d="M108.596759,104.662059 C105.626066,104.578463 102.656041,104.494198 99.6853475,104.410602 C98.8420152,104.386526 97.9706386,104.356432 97.2074329,103.995965" id="Stroke-10" stroke="#4273C4" stroke-width="2" stroke-linecap="round" stroke-linejoin="round"></path>
                <path d="M133.021745,104.578196 L138.962463,104.410334 C139.805796,104.386927 140.677172,104.356164 141.441046,103.996366" id="Stroke-12" stroke="#4273C4" stroke-width="2" stroke-linecap="round" stroke-linejoin="round"></path>
                <path d="M96.0262335,89.7973817 L104.12436,89.7973817 C105.692838,89.7973817 106.964847,88.5233754 106.964847,86.9524353 L106.964847,86.831388 C106.964847,85.2604479 105.692838,83.9864416 104.12436,83.9864416 L96.0262335,83.9864416 C94.4577557,83.9864416 93.1857462,85.2604479 93.1857462,86.831388 L93.1857462,86.9524353 C93.1857462,88.5233754 94.4577557,89.7973817 96.0262335,89.7973817 L96.0262335,89.7973817 Z" id="Stroke-14" stroke="#FFFAF6" stroke-width="2" stroke-linecap="round" stroke-linejoin="round"></path>
                <path d="M142.862892,83.9865754 L136.638392,83.9865754 C135.069246,83.9865754 133.797904,85.381629 133.797904,86.9525691 L133.797904,86.9525691 C133.797904,88.5235091 135.069246,89.7975155 136.638392,89.7975155 L142.862892,89.7975155" id="Stroke-16" stroke="#FFFAF6" stroke-width="2" stroke-linecap="round" stroke-linejoin="round"></path>
                <path d="M142.945489,80.203947 C142.021362,93.5405527 146.945809,106.938685 144.885888,120.147556 C142.793916,133.558395 133.008457,145.485903 120.278347,150.141209 C107.548236,154.795846 92.391625,151.989688 82.1648022,143.083013 C77.4233117,138.954029 76.1272642,133.337701 73.6860744,127.538799 C70.1017453,127.671215 66.3651756,126.02671 64.4982263,122.959064 C62.6319446,119.890748 63.0652959,115.448111 65.8396788,113.170281 C68.613394,110.892452 73.4704003,111.63813 75.0468908,114.864944" id="Stroke-18" stroke="#FFFAF6" stroke-width="2" stroke-linecap="round" stroke-linejoin="round"></path>
                <path d="M133.901602,178.919172 C134.226782,174.917254 127.564924,159.852548 123.977257,162.542339 C122.27056,163.821696 119.380662,165.403336 117.247959,166.015261 C111.047497,167.793519 104.203352,167.060548 98.0028896,165.702276 C95.9162598,170.720724 94.0780225,176.616598 94.0953832,182.007551 C99.8037345,178.890415 104.952535,174.863753 109.259339,170.150264 C110.465912,168.830781 111.833405,167.342768 113.67832,167.256497 C115.043143,167.192295 116.287108,167.931955 117.427576,168.643526 C122.918918,172.068295 128.41026,175.493734 133.901602,178.919172" id="Fill-20" fill="#A8CDF8"></path>
                <path d="M133.901602,178.919172 C134.226782,174.917254 127.564924,159.852548 123.977257,162.542339 C122.27056,163.821696 119.380662,165.403336 117.247959,166.015261 C111.047497,167.793519 104.203352,167.060548 98.0028896,165.702276 C95.9162598,170.720724 94.0780225,176.616598 94.0953832,182.007551 C99.8037345,178.890415 104.952535,174.863753 109.259339,170.150264 C110.465912,168.830781 111.833405,167.342768 113.67832,167.256497 C115.043143,167.192295 116.287108,167.931955 117.427576,168.643526 C122.918918,172.068295 128.41026,175.493734 133.901602,178.919172 L133.901602,178.919172 Z" id="Stroke-22" stroke="#A8CDF8" stroke-width="4.121" stroke-linecap="round" stroke-linejoin="round"></path>
                <path d="M81.2137665,48.8367748 C81.2137665,48.8367748 69.5246335,50.1067685 64.7851462,62.9792479" id="Stroke-24" stroke="#FF9C8F" stroke-width="6" stroke-linecap="round" stroke-linejoin="round"></path>
            </g>
        </g>
    </g>
</svg>