<?xml version="1.0" encoding="UTF-8" standalone="no"?>
<svg width="210px" height="211px" viewBox="0 0 210 211" version="1.1" xmlns="http://www.w3.org/2000/svg" xmlns:xlink="http://www.w3.org/1999/xlink">
    <!-- Generator: Sketch 3.8.3 (29802) - http://www.bohemiancoding.com/sketch -->
    <title>Page 1</title>
    <desc>Created with Sketch.</desc>
    <defs>
        <polygon id="path-1" points="209.582658 105.49606 209.582658 0.418482051 0 0.418482051 0 105.49606 0 210.573637 209.582658 210.573637"></polygon>
    </defs>
    <g id="ULTIMATE" stroke="none" stroke-width="1" fill="none" fill-rule="evenodd">
        <g id="Desktop-HD-Copy-8" transform="translate(-712.000000, -266.000000)">
            <g id="Page-1" transform="translate(712.000000, 266.000000)">
                <g id="Group-3" transform="translate(0.000000, 0.247891)">
                    <mask id="mask-2" fill="white">
                        <use xlink:href="#path-1"></use>
                    </mask>
                    <g id="Clip-2"></g>
                    <path d="M0,105.495993 C0,163.529058 46.917057,210.573637 104.791329,210.573637 C162.666266,210.573637 209.582658,163.529058 209.582658,105.495993 C209.582658,47.4629281 162.666266,0.418348776 104.791329,0.418348776 C46.917057,0.418348776 0,47.4629281 0,105.495993" id="Fill-1" fill="#FFE0D1" mask="url(#mask-2)"></path>
                </g>
                <path d="M123.440193,150.211133 C123.440193,150.211133 117.791459,157.874419 99.1838639,153.542997" id="Stroke-4" stroke="#A8CDF8" stroke-width="12" stroke-linecap="round" stroke-linejoin="round"></path>
                <path d="M120.948104,135.051155 C120.296839,146.476781 121.808041,161.303573 132.125953,168.403774 C137.508864,172.10814 145.222377,174.899575 154.557408,172.474645 C160.405509,170.955315 164.521775,165.898879 168.029307,160.967055 C172.568231,154.585204 172.251902,145.821736 169.758484,138.392347 C167.265731,130.962958 162.882313,124.335882 159.611364,117.217022 C156.612883,110.692567 154.42782,103.165221 156.067946,95.9737272 C157.773864,88.4996911 159.929687,81.12761 160.776332,73.4783179 C161.705383,65.0806892 161.024877,56.390523 157.848294,48.5646421 C154.671047,40.7394275 148.854845,33.8411374 141.229054,30.2467231 C133.603927,26.6516425 126.156902,26.6789637 118.986332,31.1163395 C117.454528,34.4288781 115.666206,37.897348 118.019402,39.5073044 C122.768326,42.7565377 134.895161,41.6403634 141.563991,53.0706542 C145.601839,59.9902682 144.862851,61.2350524 145.564623,68.9803022 C145.889592,72.5580572 145.470921,76.1751282 145.730098,79.7968638 C146.040446,84.1469447 146.764149,88.453045 147.335668,92.7724728 C148.353104,100.462414 147.087788,108.689451 143.773642,115.699025 C139.40418,124.939615 123.816997,133.900995 124.718801,133.375227" id="Fill-6" fill="#FF6A4D"></path>
                <path d="M145.714415,110.895078 C144.858465,111.431508 143.847009,111.741371 142.763117,111.741371 C139.682896,111.741371 137.185491,109.237143 137.185491,106.148505 C137.185491,103.059868 139.682896,100.555639 142.763117,100.555639 C145.073782,100.555639 147.055491,101.964351 147.902136,103.971466" id="Fill-8" fill="#FFCCB8"></path>
                <path d="M87.8863956,129.386987 C95.8610791,135.384341 109.241934,138.688883 120.948104,135.051155 C133.308199,131.210182 144.652187,119.702592 146.64918,106.882915 C148.616269,94.2564848 143.914528,81.4488017 144.79706,68.6997593 C145.653009,56.3332149 136.041522,45.955793 124.621775,41.2085539" id="Stroke-10" stroke="#FFFAF6" stroke-width="3" stroke-linecap="round" stroke-linejoin="round"></path>
                <path d="M131.371215,114.166568 C131.371215,114.166568 128.135487,115.190783 124.899095,113.744754" id="Stroke-12" stroke="#FF6A4D" stroke-width="6.252" stroke-linecap="round" stroke-linejoin="round"></path>
                <path d="M113.993383,92.079845 C111.157054,91.9998803 108.320725,91.9192492 105.48506,91.8392845 C104.679617,91.8166278 103.847592,91.7879738 103.118573,91.4434591 C102.343035,91.0769541 101.760883,90.3812611 101.370788,89.6162652 C100.980693,88.850603 100.763383,88.0109734 100.548731,87.1793403" id="Stroke-14" stroke="#033A96" stroke-width="2.084" stroke-linecap="round" stroke-linejoin="round"></path>
                <path d="M105.675456,91.7082756 C104.421437,90.4321719 103.565487,88.7675729 103.255139,87.0030181" id="Stroke-16" stroke="#033A96" stroke-width="2.084" stroke-linecap="round" stroke-linejoin="round"></path>
                <path d="M137.315013,91.9996804 C140.151342,91.9197157 140.151342,91.9197157 142.987671,91.8390846 C143.793114,91.8164279 144.625139,91.7877739 145.353494,91.4432592 C146.129032,91.0767542 146.711184,90.3810611 147.101278,89.6160653 C147.491373,88.8510694 147.708684,88.0107735 147.923335,87.1791404" id="Stroke-18" stroke="#033A96" stroke-width="2.084" stroke-linecap="round" stroke-linejoin="round"></path>
                <path d="M142.796744,91.7082756 C144.050763,90.4321719 144.906712,88.7675729 145.21706,87.0030181" id="Stroke-20" stroke="#033A96" stroke-width="2.084" stroke-linecap="round" stroke-linejoin="round"></path>
                <path d="M99.8878291,77.8701138 L107.838589,77.8701138 C109.276025,77.8701138 110.441658,76.7012961 110.441658,75.2599319 L110.441658,74.9254128 C110.441658,73.4840487 109.276025,72.315231 107.838589,72.315231 L99.8878291,72.315231 C98.4503924,72.315231 97.2847595,73.4840487 97.2847595,74.9254128 L97.2847595,75.2599319 C97.2847595,76.7012961 98.4503924,77.8701138 99.8878291,77.8701138 L99.8878291,77.8701138 Z" id="Stroke-22" stroke="#FFFAF6" stroke-width="3" stroke-linecap="round" stroke-linejoin="round"></path>
                <path d="M144.717978,72.3153643 L138.77418,72.3153643 C137.276269,72.3153643 136.062123,73.648776 136.062123,75.1507801 C136.062123,76.6527841 137.276269,77.870247 138.77418,77.870247 L144.717978,77.870247" id="Stroke-24" stroke="#FFFAF6" stroke-width="3" stroke-linecap="round" stroke-linejoin="round"></path>
                <path d="M113.025722,106.148372 C113.025722,109.237009 110.528316,111.741238 107.448095,111.741238 C104.367873,111.741238 101.870468,109.237009 101.870468,106.148372 C101.870468,103.059735 104.367873,100.555506 107.448095,100.555506 C110.528316,100.555506 113.025722,103.059735 113.025722,106.148372" id="Fill-26" fill="#FFCCB8"></path>
                <path d="M105.311611,94.302931 C105.311611,94.8140388 104.898256,95.2285227 104.388541,95.2285227 C103.878161,95.2285227 103.464807,94.8140388 103.464807,94.302931 C103.464807,93.7918231 103.878161,93.3773393 104.388541,93.3773393 C104.898256,93.3773393 105.311611,93.7918231 105.311611,94.302931" id="Fill-28" fill="#4273C4"></path>
                <path d="M107.508503,22.0500725 C96.2309715,19.3459321 72.6744209,20.9952045 59.8265411,42.5410327 C46.9786614,64.086861 53.3005918,86.7808494 51.4464778,100.522121 C48.9962563,118.684775 38.7035981,127.193688 32.2115411,134.761682 C27.5523323,140.193286 24.3897057,149.147336 28.4082816,156.597383 C32.0633449,163.371727 35.9244209,163.738232 39.5203386,164.932372 C44.9564146,166.738242 50.1034082,165.038992 54.7692627,173.383977 C62.5226487,187.250527 72.2690411,199.689039 91.3198956,192.80341 C110.37075,185.917781 113.908851,172.367759 113.025655,162.150266 C112.142459,151.932774 110.37075,141.825899 94.1994209,132.052211 C78.0287563,122.279189 77.5854968,99.2893312 77.5854968,99.2893312 C77.5854968,99.2893312 64.8505918,101.544336 65.1808766,89.6295927 C65.4021741,81.6304549 73.1555601,82.851916 73.1555601,82.851916 C73.1555601,82.851916 71.8264462,91.4574529 77.1429019,91.7080091 C82.4593576,91.9592316 80.6869842,85.1049221 86.0034399,77.8701138 C91.3198956,70.6353054 99.7411614,63.5271079 107.271256,61.0835193 C114.800687,58.640597 123.183408,52.5272939 124.899294,46.8677906 C126.615845,41.2082874 127.888472,26.9365834 107.508503,22.0500725" id="Fill-30" fill="#FF6A4D"></path>
                <path d="M69.8004778,43.2823724 C69.8004778,43.2823724 76.4619968,29.1632678 95.6856361,30.0208894" id="Stroke-32" stroke="#FF9C8F" stroke-width="6" stroke-linecap="round" stroke-linejoin="round"></path>
                <path d="M64.7454589,48.9982508 C64.6803323,50.1377481 65.5482437,51.1146504 66.6853006,51.1806213 C67.821693,51.2459259 68.7959335,50.3749768 68.8610601,49.2354794 C68.9268513,48.0959821 68.0582753,47.1190798 66.9218829,47.0531089 C65.7848259,46.9878044 64.8105854,47.8587535 64.7454589,48.9982508" id="Fill-34" fill="#FF9C8F"></path>
            </g>
        </g>
    </g>
</svg>